<svg width="20" height="10" viewBox="0 0 20 10" fill="none" xmlns="http://www.w3.org/2000/svg">
<path d="M12.5409 8.65672L18.8521 2.34547C19.1082 2.08785 19.252 1.73935 19.252 1.3761C19.252 1.01284 19.1082 0.664346 18.8521 0.406723C18.7243 0.277846 18.5722 0.175554 18.4047 0.105747C18.2371 0.0359404 18.0574 0 17.8759 0C17.6943 0 17.5146 0.0359404 17.3471 0.105747C17.1795 0.175554 17.0274 0.277846 16.8996 0.406723L10.6021 6.73172C10.4743 6.8606 10.3222 6.96289 10.1547 7.0327C9.9871 7.10251 9.80738 7.13845 9.62586 7.13845C9.44435 7.13845 9.26463 7.10251 9.09707 7.0327C8.92951 6.96289 8.77744 6.8606 8.64961 6.73172L2.35211 0.406723C2.09501 0.147805 1.7456 0.00162238 1.38072 0.000333071C1.01585 -0.000956242 0.665403 0.142755 0.406485 0.399849C0.147568 0.656943 0.00138361 1.00636 9.42942e-05 1.37124C-0.00119502 1.73611 0.142517 2.08656 0.399611 2.34547L6.71086 8.65672C7.4843 9.4292 8.53273 9.8631 9.62586 9.8631C10.719 9.8631 11.7674 9.4292 12.5409 8.65672V8.65672Z" fill="#D1D5DB"/>
</svg>
