<svg width="20" height="20" viewBox="0 0 20 20" fill="none" xmlns="http://www.w3.org/2000/svg">
<path d="M6.66634 3.3335V11.8202C6.39931 11.722 6.11749 11.6702 5.83301 11.6668C5.33856 11.6668 4.85521 11.8135 4.44408 12.0882C4.03296 12.3629 3.71253 12.7533 3.52331 13.2101C3.33409 13.6669 3.28458 14.1696 3.38105 14.6546C3.47751 15.1395 3.71561 15.585 4.06524 15.9346C4.41487 16.2842 4.86033 16.5223 5.34528 16.6188C5.83024 16.7153 6.3329 16.6657 6.78972 16.4765C7.24653 16.2873 7.63698 15.9669 7.91168 15.5558C8.18639 15.1446 8.33301 14.6613 8.33301 14.1668V5.8335H14.1663V9.32016C13.8993 9.22201 13.6175 9.17015 13.333 9.16683C12.8386 9.16683 12.3552 9.31345 11.9441 9.58815C11.533 9.86286 11.2125 10.2533 11.0233 10.7101C10.8341 11.1669 10.7846 11.6696 10.881 12.1546C10.9775 12.6395 11.2156 13.085 11.5652 13.4346C11.9149 13.7842 12.3603 14.0223 12.8453 14.1188C13.3302 14.2153 13.8329 14.1657 14.2897 13.9765C14.7465 13.7873 15.137 13.4669 15.4117 13.0558C15.6864 12.6446 15.833 12.1613 15.833 11.6668V3.3335H6.66634Z" fill="#2B2B2B"/>
</svg>
