<svg width="32" height="32" viewBox="0 0 32 32" fill="none" xmlns="http://www.w3.org/2000/svg">
<rect x="0.5" y="0.5" width="31" height="31" rx="15.5" fill="url(#paint0_linear_651_26775)"/>
<rect x="0.5" y="0.5" width="31" height="31" rx="15.5" stroke="white"/>
<path d="M16.0983 20.144C15.4903 20.144 14.9503 20.036 14.4783 19.82C14.0063 19.604 13.6383 19.296 13.3743 18.896C13.1103 18.496 12.9743 18.02 12.9663 17.468H14.4783C14.4863 17.748 14.5543 18 14.6823 18.224C14.8103 18.44 14.9943 18.612 15.2343 18.74C15.4743 18.868 15.7623 18.932 16.0983 18.932C16.3863 18.932 16.6343 18.888 16.8423 18.8C17.0583 18.704 17.2223 18.572 17.3343 18.404C17.4543 18.228 17.5143 18.024 17.5143 17.792C17.5143 17.544 17.4543 17.332 17.3343 17.156C17.2143 16.98 17.0463 16.836 16.8303 16.724C16.6223 16.604 16.3783 16.496 16.0983 16.4C15.8263 16.296 15.5343 16.196 15.2223 16.1C14.5423 15.876 14.0303 15.588 13.6863 15.236C13.3503 14.884 13.1823 14.416 13.1823 13.832C13.1823 13.344 13.2983 12.924 13.5303 12.572C13.7623 12.22 14.0863 11.948 14.5023 11.756C14.9263 11.556 15.4143 11.456 15.9663 11.456C16.5263 11.456 17.0143 11.556 17.4303 11.756C17.8543 11.956 18.1863 12.236 18.4263 12.596C18.6663 12.948 18.7943 13.372 18.8103 13.868H17.2623C17.2623 13.66 17.2103 13.468 17.1063 13.292C17.0023 13.108 16.8503 12.96 16.6503 12.848C16.4583 12.728 16.2223 12.668 15.9423 12.668C15.7023 12.66 15.4863 12.7 15.2943 12.788C15.1103 12.868 14.9623 12.988 14.8503 13.148C14.7463 13.3 14.6943 13.492 14.6943 13.724C14.6943 13.948 14.7423 14.136 14.8383 14.288C14.9423 14.432 15.0903 14.556 15.2823 14.66C15.4743 14.756 15.6983 14.848 15.9543 14.936C16.2103 15.024 16.4863 15.12 16.7823 15.224C17.2063 15.36 17.5863 15.528 17.9223 15.728C18.2663 15.92 18.5343 16.172 18.7263 16.484C18.9263 16.796 19.0263 17.2 19.0263 17.696C19.0263 18.128 18.9143 18.532 18.6903 18.908C18.4743 19.276 18.1463 19.576 17.7063 19.808C17.2743 20.032 16.7383 20.144 16.0983 20.144Z" fill="white"/>
<defs>
<linearGradient id="paint0_linear_651_26775" x1="0" y1="0" x2="32" y2="32" gradientUnits="userSpaceOnUse">
<stop stop-color="#FB923C"/>
<stop offset="1" stop-color="#EA580C"/>
</linearGradient>
</defs>
</svg>
