<svg width="40" height="40" viewBox="0 0 40 40" fill="none" xmlns="http://www.w3.org/2000/svg">
<path d="M10.8333 0C9.28624 0 7.80251 0.614581 6.70854 1.70854C5.61458 2.80251 5 4.28624 5 5.83333V34.1667C5 35.7138 5.61458 37.1975 6.70854 38.2915C7.80251 39.3854 9.28624 40 10.8333 40C12.3804 40 13.8642 39.3854 14.9581 38.2915C16.0521 37.1975 16.6667 35.7138 16.6667 34.1667V5.83333C16.6667 4.28624 16.0521 2.80251 14.9581 1.70854C13.8642 0.614581 12.3804 0 10.8333 0ZM13.3333 34.1667C13.3333 34.8297 13.0699 35.4656 12.6011 35.9344C12.1323 36.4033 11.4964 36.6667 10.8333 36.6667C10.1703 36.6667 9.53441 36.4033 9.06557 35.9344C8.59673 35.4656 8.33333 34.8297 8.33333 34.1667V5.83333C8.33333 5.17029 8.59673 4.53441 9.06557 4.06557C9.53441 3.59673 10.1703 3.33333 10.8333 3.33333C11.4964 3.33333 12.1323 3.59673 12.6011 4.06557C13.0699 4.53441 13.3333 5.17029 13.3333 5.83333V34.1667Z" fill="white"/>
<path d="M29.1668 0C27.6197 0 26.136 0.614581 25.042 1.70854C23.9481 2.80251 23.3335 4.28624 23.3335 5.83333V34.1667C23.3335 35.7138 23.9481 37.1975 25.042 38.2915C26.136 39.3854 27.6197 40 29.1668 40C30.7139 40 32.1977 39.3854 33.2916 38.2915C34.3856 37.1975 35.0002 35.7138 35.0002 34.1667V5.83333C35.0002 4.28624 34.3856 2.80251 33.2916 1.70854C32.1977 0.614581 30.7139 0 29.1668 0ZM31.6668 34.1667C31.6668 34.8297 31.4034 35.4656 30.9346 35.9344C30.4658 36.4033 29.8299 36.6667 29.1668 36.6667C28.5038 36.6667 27.8679 36.4033 27.3991 35.9344C26.9302 35.4656 26.6668 34.8297 26.6668 34.1667V5.83333C26.6668 5.17029 26.9302 4.53441 27.3991 4.06557C27.8679 3.59673 28.5038 3.33333 29.1668 3.33333C29.8299 3.33333 30.4658 3.59673 30.9346 4.06557C31.4034 4.53441 31.6668 5.17029 31.6668 5.83333V34.1667Z" fill="white"/>
</svg>
