<svg width="16" height="16" viewBox="0 0 16 16" fill="none" xmlns="http://www.w3.org/2000/svg">
<g clip-path="url(#clip0_1151_5636)">
<path d="M13.5934 5.28473L7.26584 0.641876C6.77164 0.279989 6.18686 0.0620463 5.57635 0.0122146C4.96584 -0.0376172 4.35346 0.0826091 3.80711 0.359562C3.26076 0.636515 2.80179 1.05937 2.48109 1.58125C2.16039 2.10312 1.99049 2.70362 1.99023 3.31616V12.6019C1.99034 13.2147 2.16025 13.8155 2.4811 14.3376C2.80195 14.8597 3.26119 15.2827 3.80786 15.5596C4.35453 15.8366 4.96724 15.9566 5.578 15.9065C6.18876 15.8563 6.77367 15.6379 7.26783 15.2755L13.5954 10.6326C14.0154 10.3246 14.357 9.92198 14.5924 9.45737C14.8278 8.99275 14.9505 8.47921 14.9505 7.95835C14.9505 7.43749 14.8278 6.92395 14.5924 6.45933C14.357 5.99471 14.0154 5.59209 13.5954 5.28407L13.5934 5.28473ZM12.8081 9.56279L6.48054 14.2056C6.18407 14.4223 5.83343 14.5527 5.46745 14.5824C5.10146 14.612 4.7344 14.5399 4.40688 14.3739C4.07937 14.2078 3.80419 13.9544 3.61179 13.6417C3.41939 13.3289 3.31728 12.9691 3.31676 12.6019V3.31616C3.31308 2.94828 3.41327 2.58682 3.6058 2.27332C3.79833 1.95983 4.07541 1.70701 4.40518 1.54392C4.68567 1.40124 4.99585 1.32671 5.31054 1.32637C5.7323 1.32798 6.14242 1.46491 6.48054 1.71703L12.8081 6.35988C13.0598 6.54473 13.2645 6.78623 13.4055 7.06484C13.5466 7.34346 13.6201 7.65136 13.6201 7.96365C13.6201 8.27594 13.5466 8.58385 13.4055 8.86246C13.2645 9.14108 13.0598 9.38258 12.8081 9.56743V9.56279Z" fill="white"/>
</g>
<defs>
<clipPath id="clip0_1151_5636">
<rect width="15.9184" height="15.9184" fill="white"/>
</clipPath>
</defs>
</svg>
