<svg width="22" height="23" viewBox="0 0 22 23" fill="none" xmlns="http://www.w3.org/2000/svg">
<path d="M16.874 3.979C16.6129 3.979 16.3577 4.05994 16.1406 4.21157C15.9236 4.36321 15.7544 4.57873 15.6545 4.8309C15.5546 5.08306 15.5284 5.36053 15.5794 5.62822C15.6303 5.89592 15.756 6.14181 15.9406 6.33481C16.1252 6.5278 16.3604 6.65924 16.6165 6.71248C16.8725 6.76573 17.1379 6.7384 17.3791 6.63395C17.6203 6.5295 17.8265 6.35263 17.9715 6.12569C18.1166 5.89875 18.194 5.63194 18.194 5.359C18.194 4.993 18.0549 4.64199 17.8074 4.38319C17.5598 4.12439 17.2241 3.979 16.874 3.979ZM21.934 6.762C21.9126 5.80784 21.7417 4.86381 21.428 3.9675C21.1483 3.2006 20.713 2.50617 20.152 1.932C19.6073 1.34254 18.9415 0.890303 18.205 0.6095C17.3499 0.271585 16.4459 0.0887915 15.532 0.0689999C14.366 -6.42613e-08 13.992 0 11 0C8.008 0 7.634 -6.42613e-08 6.468 0.0689999C5.55407 0.0887915 4.65008 0.271585 3.795 0.6095C3.05984 0.893146 2.39463 1.34499 1.848 1.932C1.28417 2.50145 0.851594 3.19751 0.583 3.9675C0.259777 4.86144 0.084931 5.80653 0.0659999 6.762C-6.14673e-08 7.981 0 8.372 0 11.5C0 14.628 -6.14673e-08 15.019 0.0659999 16.238C0.084931 17.1935 0.259777 18.1386 0.583 19.0325C0.851594 19.8025 1.28417 20.4985 1.848 21.068C2.39463 21.655 3.05984 22.1069 3.795 22.3905C4.65008 22.7284 5.55407 22.9112 6.468 22.931C7.634 23 8.008 23 11 23C13.992 23 14.366 23 15.532 22.931C16.4459 22.9112 17.3499 22.7284 18.205 22.3905C18.9415 22.1097 19.6073 21.6575 20.152 21.068C20.7155 20.496 21.1512 19.8009 21.428 19.0325C21.7417 18.1362 21.9126 17.1922 21.934 16.238C21.934 15.019 22 14.628 22 11.5C22 8.372 22 7.981 21.934 6.762ZM19.954 16.1C19.946 16.83 19.8195 17.5533 19.58 18.239C19.4044 18.7395 19.1223 19.1917 18.755 19.5615C18.3982 19.9416 17.9665 20.2359 17.49 20.424C16.8341 20.6744 16.1423 20.8066 15.444 20.815C14.344 20.8725 13.937 20.884 11.044 20.884C8.151 20.884 7.744 20.884 6.644 20.815C5.91898 20.8292 5.19705 20.7125 4.51 20.47C4.05436 20.2723 3.64249 19.9787 3.3 19.6075C2.9349 19.2381 2.65633 18.7855 2.486 18.285C2.21744 17.5894 2.06849 16.8497 2.046 16.1C2.046 14.95 1.98 14.5245 1.98 11.5C1.98 8.4755 1.98 8.05 2.046 6.9C2.05093 6.15371 2.18125 5.41414 2.431 4.715C2.62465 4.2296 2.92189 3.79691 3.3 3.45C3.63419 3.05459 4.04722 2.74056 4.51 2.53C5.18051 2.27705 5.8872 2.14484 6.6 2.139C7.7 2.139 8.107 2.07 11 2.07C13.893 2.07 14.3 2.07 15.4 2.139C16.0982 2.14737 16.7901 2.27958 17.446 2.53C17.9459 2.72395 18.3945 3.03927 18.755 3.45C19.1155 3.80326 19.3971 4.23514 19.58 4.715C19.8245 5.41527 19.951 6.15455 19.954 6.9C20.009 8.05 20.02 8.4755 20.02 11.5C20.02 14.5245 20.009 14.95 19.954 16.1ZM11 5.6005C9.88439 5.60277 8.79446 5.9507 7.86792 6.60033C6.94138 7.24996 6.21982 8.17213 5.7944 9.25032C5.36898 10.3285 5.2588 11.5143 5.47777 12.658C5.69675 13.8016 6.23506 14.8517 7.02468 15.6756C7.81431 16.4995 8.81981 17.0603 9.91415 17.287C11.0085 17.5137 12.1425 17.3962 13.173 16.9493C14.2035 16.5025 15.0842 15.7463 15.7037 14.7764C16.3233 13.8065 16.654 12.6663 16.654 11.5C16.6555 10.7239 16.5101 9.9551 16.2264 9.2379C15.9426 8.5207 15.526 7.86923 15.0006 7.32096C14.4751 6.77269 13.8511 6.33843 13.1646 6.04317C12.478 5.74791 11.7424 5.59747 11 5.6005ZM11 15.3295C10.2755 15.3295 9.56732 15.1049 8.96495 14.6841C8.36257 14.2633 7.89307 13.6652 7.61583 12.9655C7.33859 12.2657 7.26605 11.4958 7.40738 10.7529C7.54872 10.0101 7.89759 9.3277 8.40987 8.79213C8.92215 8.25657 9.57483 7.89184 10.2854 7.74408C10.9959 7.59632 11.7324 7.67216 12.4018 7.962C13.0711 8.25185 13.6432 8.74269 14.0457 9.37244C14.4482 10.0022 14.663 10.7426 14.663 11.5C14.663 12.0029 14.5683 12.5009 14.3842 12.9655C14.2001 13.4301 13.9303 13.8523 13.5901 14.2079C13.25 14.5635 12.8462 14.8455 12.4018 15.038C11.9574 15.2304 11.481 15.3295 11 15.3295Z" fill="black"/>
</svg>
