<svg width="22" height="22" viewBox="0 0 22 22" fill="none" xmlns="http://www.w3.org/2000/svg">
<g clip-path="url(#clip0_1078_4008)">
<path d="M17.4167 2.75033H11.4327C11.2909 2.75126 11.1508 2.71991 11.0229 2.65866L8.12992 1.20666C7.74803 1.01649 7.32729 0.917346 6.90067 0.916992H4.58333C3.3682 0.918448 2.20326 1.4018 1.34403 2.26103C0.484808 3.12025 0.00145554 4.2852 0 5.50033L0 16.5003C0.00145554 17.7155 0.484808 18.8804 1.34403 19.7396C2.20326 20.5989 3.3682 21.0822 4.58333 21.0837H17.4167C18.6318 21.0822 19.7967 20.5989 20.656 19.7396C21.5152 18.8804 21.9985 17.7155 22 16.5003V7.33366C21.9985 6.11853 21.5152 4.95359 20.656 4.09436C19.7967 3.23513 18.6318 2.75178 17.4167 2.75033ZM4.58333 2.75033H6.90067C7.04244 2.74939 7.18256 2.78074 7.31042 2.84199L10.2034 4.28941C10.5849 4.48116 11.0057 4.58188 11.4327 4.58366H17.4167C17.9649 4.58455 18.5003 4.74927 18.9542 5.05667C19.4081 5.36407 19.7598 5.80011 19.9641 6.30883L1.83333 6.41149V5.50033C1.83333 4.77098 2.12306 4.07151 2.63879 3.55578C3.15451 3.04006 3.85399 2.75033 4.58333 2.75033ZM17.4167 19.2503H4.58333C3.85399 19.2503 3.15451 18.9606 2.63879 18.4449C2.12306 17.9291 1.83333 17.2297 1.83333 16.5003V8.24483L20.1667 8.14124V16.5003C20.1667 17.2297 19.8769 17.9291 19.3612 18.4449C18.8455 18.9606 18.146 19.2503 17.4167 19.2503Z" fill="#555555"/>
</g>
<defs>
<clipPath id="clip0_1078_4008">
<rect width="22" height="22" fill="white"/>
</clipPath>
</defs>
</svg>
