<svg width="20" height="20" viewBox="0 0 20 20" fill="none" xmlns="http://www.w3.org/2000/svg">
<g clip-path="url(#clip0_1078_5389)">
<path d="M11.5379 14.3894L8.81955 17.1077C8.03032 17.8758 6.97039 18.3023 5.86909 18.295C4.76779 18.2876 3.71367 17.8469 2.93481 17.0683C2.15594 16.2896 1.71496 15.2356 1.70727 14.1343C1.69958 13.033 2.1258 11.973 2.89372 11.1835L5.61205 8.4627C5.76831 8.30634 5.85605 8.0943 5.85597 7.87324C5.85589 7.65219 5.768 7.44021 5.61163 7.28396C5.45527 7.1277 5.24323 7.03996 5.02217 7.04004C4.80111 7.04012 4.58914 7.12801 4.43288 7.28437L1.71538 10.0052C0.617277 11.1039 0.000586036 12.5937 0.000976748 14.1471C0.00136746 15.7004 0.618807 17.19 1.71747 18.2881C2.81613 19.3862 4.30601 20.0029 5.85936 20.0025C7.41271 20.0021 8.90228 19.3847 10.0004 18.286L12.7187 15.5677C12.8705 15.4105 12.9545 15.2 12.9526 14.9815C12.9507 14.763 12.8631 14.554 12.7086 14.3995C12.5541 14.245 12.345 14.1574 12.1266 14.1555C11.9081 14.1536 11.6976 14.2376 11.5404 14.3894H11.5379Z" fill="#2B2B2B"/>
<path d="M18.2867 1.71801C17.7445 1.17202 17.0992 0.739074 16.3884 0.444256C15.6776 0.149437 14.9154 -0.0013921 14.1459 0.000508815V0.000508815C13.3768 -0.00153429 12.6149 0.148907 11.9043 0.443135C11.1937 0.737363 10.5484 1.16954 10.0059 1.71468L7.2834 4.43384C7.12703 4.5901 7.03914 4.80207 7.03906 5.02313C7.03898 5.24419 7.12672 5.45623 7.28298 5.61259C7.43924 5.76896 7.65121 5.85685 7.87227 5.85693C8.09333 5.85701 8.30536 5.76927 8.46173 5.61301L11.1826 2.89468C11.5705 2.50438 12.0321 2.19493 12.5404 1.98422C13.0488 1.77352 13.5939 1.66576 14.1442 1.66718V1.66718C14.9728 1.66745 15.7827 1.91337 16.4715 2.37384C17.1603 2.83432 17.6971 3.48867 18.0141 4.25419C18.3311 5.01971 18.414 5.86203 18.2523 6.67466C18.0907 7.48729 17.6917 8.23375 17.1059 8.81968L14.3876 11.538C14.2312 11.6944 14.1434 11.9065 14.1434 12.1276C14.1434 12.3487 14.2312 12.5608 14.3876 12.7172C14.5439 12.8735 14.756 12.9614 14.9771 12.9614C15.1983 12.9614 15.4104 12.8735 15.5667 12.7172L18.2851 10.0005C19.3818 8.90142 19.9978 7.41226 19.9981 5.8596C19.9985 4.30695 19.383 2.81754 18.2867 1.71801V1.71801Z" fill="#2B2B2B"/>
<path d="M11.9107 6.91068L6.91066 11.9107C6.83107 11.9875 6.76758 12.0795 6.72391 12.1812C6.68023 12.2828 6.65724 12.3922 6.65628 12.5028C6.65532 12.6135 6.6764 12.7232 6.71831 12.8256C6.76021 12.928 6.82208 13.0211 6.90033 13.0993C6.97857 13.1776 7.07161 13.2395 7.17403 13.2814C7.27644 13.3233 7.38617 13.3443 7.49682 13.3434C7.60747 13.3424 7.71682 13.3194 7.81849 13.2758C7.92016 13.2321 8.01212 13.1686 8.08899 13.089L13.089 8.08901C13.2408 7.93185 13.3248 7.72135 13.3229 7.50285C13.321 7.28435 13.2333 7.07534 13.0788 6.92083C12.9243 6.76633 12.7153 6.67869 12.4968 6.67679C12.2783 6.67489 12.0678 6.75889 11.9107 6.91068Z" fill="#2B2B2B"/>
</g>
<defs>
<clipPath id="clip0_1078_5389">
<rect width="20" height="20" fill="white"/>
</clipPath>
</defs>
</svg>
