<svg width="203" height="203" viewBox="0 0 203 203" fill="none" xmlns="http://www.w3.org/2000/svg">
<g filter="url(#filter0_d_923_8993)">
<rect x="30" y="21" width="155" height="155" rx="77.5" fill="#2828FA" shape-rendering="crispEdges"/>
<rect x="25.5" y="16.5" width="164" height="164" rx="82" stroke="#4C4CFB" stroke-width="9" shape-rendering="crispEdges"/>
<g clip-path="url(#clip0_923_8993)">
<path d="M107.499 111.833C111.034 111.829 114.423 110.423 116.923 107.924C119.423 105.424 120.829 102.035 120.833 98.5V91.8333C120.833 88.2971 119.428 84.9057 116.927 82.4052C114.427 79.9048 111.036 78.5 107.499 78.5C103.963 78.5 100.572 79.9048 98.0713 82.4052C95.5708 84.9057 94.166 88.2971 94.166 91.8333V98.5C94.17 102.035 95.576 105.424 98.0756 107.924C100.575 110.423 103.964 111.829 107.499 111.833ZM107.499 81.8333C109.86 81.8377 112.144 82.6764 113.946 84.2013C115.748 85.7262 116.954 87.8391 117.349 90.1667H112.499C112.057 90.1667 111.633 90.3423 111.321 90.6548C111.008 90.9674 110.833 91.3913 110.833 91.8333C110.833 92.2754 111.008 92.6993 111.321 93.0118C111.633 93.3244 112.057 93.5 112.499 93.5H117.499V96.8333H112.499C112.057 96.8333 111.633 97.0089 111.321 97.3215C111.008 97.634 110.833 98.058 110.833 98.5C110.833 98.942 111.008 99.3659 111.321 99.6785C111.633 99.9911 112.057 100.167 112.499 100.167H117.349C116.958 102.496 115.753 104.611 113.95 106.136C112.147 107.661 109.861 108.498 107.499 108.498C105.137 108.498 102.852 107.661 101.049 106.136C99.2455 104.611 98.0411 102.496 97.6493 100.167H102.499C102.941 100.167 103.365 99.9911 103.678 99.6785C103.99 99.3659 104.166 98.942 104.166 98.5C104.166 98.058 103.99 97.634 103.678 97.3215C103.365 97.0089 102.941 96.8333 102.499 96.8333H97.4993V93.5H102.499C102.941 93.5 103.365 93.3244 103.678 93.0118C103.99 92.6993 104.166 92.2754 104.166 91.8333C104.166 91.3913 103.99 90.9674 103.678 90.6548C103.365 90.3423 102.941 90.1667 102.499 90.1667H97.6493C98.0448 87.8391 99.2502 85.7262 101.053 84.2013C102.855 82.6764 105.138 81.8377 107.499 81.8333Z" fill="white"/>
<path d="M125.833 98.5C125.391 98.5 124.967 98.6756 124.655 98.9882C124.342 99.3007 124.167 99.7246 124.167 100.167C124.162 104.144 122.58 107.956 119.768 110.768C116.956 113.58 113.144 115.162 109.167 115.167H105.833C101.857 115.162 98.0441 113.58 95.2321 110.768C92.4201 107.956 90.8382 104.143 90.8333 100.167C90.8333 99.7246 90.6577 99.3007 90.3452 98.9882C90.0326 98.6756 89.6087 98.5 89.1667 98.5C88.7246 98.5 88.3007 98.6756 87.9882 98.9882C87.6756 99.3007 87.5 99.7246 87.5 100.167C87.5057 105.027 89.4391 109.687 92.876 113.124C96.313 116.561 100.973 118.494 105.833 118.5H109.167C114.027 118.494 118.687 116.561 122.124 113.124C125.561 109.687 127.494 105.027 127.5 100.167C127.5 99.7246 127.324 99.3007 127.012 98.9882C126.699 98.6756 126.275 98.5 125.833 98.5Z" fill="white"/>
</g>
</g>
<defs>
<filter id="filter0_d_923_8993" x="0" y="0" width="203" height="203" filterUnits="userSpaceOnUse" color-interpolation-filters="sRGB">
<feFlood flood-opacity="0" result="BackgroundImageFix"/>
<feColorMatrix in="SourceAlpha" type="matrix" values="0 0 0 0 0 0 0 0 0 0 0 0 0 0 0 0 0 0 127 0" result="hardAlpha"/>
<feOffset dx="-6" dy="3"/>
<feGaussianBlur stdDeviation="7.5"/>
<feComposite in2="hardAlpha" operator="out"/>
<feColorMatrix type="matrix" values="0 0 0 0 0.722363 0 0 0 0 0.722363 0 0 0 0 0.993021 0 0 0 1 0"/>
<feBlend mode="normal" in2="BackgroundImageFix" result="effect1_dropShadow_923_8993"/>
<feBlend mode="normal" in="SourceGraphic" in2="effect1_dropShadow_923_8993" result="shape"/>
</filter>
<clipPath id="clip0_923_8993">
<rect width="40" height="40" fill="white" transform="translate(87.5 78.5)"/>
</clipPath>
</defs>
</svg>
