<svg width="62" height="64" viewBox="0 0 62 64" fill="none" xmlns="http://www.w3.org/2000/svg">
<path fill-rule="evenodd" clip-rule="evenodd" d="M30.8516 63.9782C47.8437 63.9782 61.7031 49.6077 61.7031 31.9891C61.7031 14.3705 47.8437 0 30.8516 0C13.8595 0 0 14.3705 0 31.9891C0 49.6077 13.8595 63.9782 30.8516 63.9782Z" fill="#013399"/>
<path d="M22.6699 31.8497V19.2088C22.6699 14.5404 26.3347 10.7422 30.8379 10.7422C35.3411 10.7422 39.0042 14.5404 39.0042 19.2088V31.8497C39.0042 36.5198 35.3411 40.3188 30.8379 40.3188C26.3347 40.3188 22.6699 36.5198 22.6699 31.8497ZM43.0713 23.2014C42.3604 23.2014 41.7819 23.8021 41.7819 24.5391V31.8496C41.7819 34.8672 40.6399 37.7132 38.5656 39.8631C36.4922 42.013 33.7481 43.1964 30.8378 43.1964C27.9276 43.1964 25.1827 42.013 23.1092 39.8631C21.0366 37.7141 19.8945 34.868 19.8945 31.8496V24.5391C19.8945 23.802 19.316 23.2014 18.6051 23.2014C17.8927 23.2014 17.3125 23.8021 17.3125 24.5391V31.8496C17.3125 39.1306 22.6919 45.1326 29.546 45.8092V49.7989H24.6132C23.7015 49.7989 22.9594 50.5676 22.9594 51.5136V53.2277H38.717V51.5138C38.717 50.5676 37.9749 49.799 37.0632 49.799H32.128V45.8095C38.9821 45.1336 44.3615 39.1314 44.3615 31.8497V24.5392C44.3615 23.8021 43.783 23.2014 43.0713 23.2014Z" fill="white"/>
</svg>
