<svg width="203" height="203" viewBox="0 0 203 203" fill="none" xmlns="http://www.w3.org/2000/svg">
<g filter="url(#filter0_d_923_9482)">
<rect x="30" y="21" width="155" height="155" rx="77.5" fill="#FB2126" shape-rendering="crispEdges"/>
<rect x="25.5" y="16.5" width="164" height="164" rx="82" stroke="#FC464A" stroke-width="9" shape-rendering="crispEdges"/>
<g clip-path="url(#clip0_923_9482)">
<path d="M98.3333 78.5C96.7862 78.5 95.3025 79.1146 94.2085 80.2085C93.1146 81.3025 92.5 82.7862 92.5 84.3333V112.667C92.5 114.214 93.1146 115.697 94.2085 116.791C95.3025 117.885 96.7862 118.5 98.3333 118.5C99.8804 118.5 101.364 117.885 102.458 116.791C103.552 115.697 104.167 114.214 104.167 112.667V84.3333C104.167 82.7862 103.552 81.3025 102.458 80.2085C101.364 79.1146 99.8804 78.5 98.3333 78.5ZM100.833 112.667C100.833 113.33 100.57 113.966 100.101 114.434C99.6323 114.903 98.9964 115.167 98.3333 115.167C97.6703 115.167 97.0344 114.903 96.5656 114.434C96.0967 113.966 95.8333 113.33 95.8333 112.667V84.3333C95.8333 83.6703 96.0967 83.0344 96.5656 82.5656C97.0344 82.0967 97.6703 81.8333 98.3333 81.8333C98.9964 81.8333 99.6323 82.0967 100.101 82.5656C100.57 83.0344 100.833 83.6703 100.833 84.3333V112.667Z" fill="white"/>
<path d="M116.667 78.5C115.12 78.5 113.636 79.1146 112.543 80.2085C111.449 81.3025 110.834 82.7862 110.834 84.3333V112.667C110.834 114.214 111.449 115.697 112.543 116.791C113.636 117.885 115.12 118.5 116.667 118.5C118.214 118.5 119.698 117.885 120.792 116.791C121.886 115.697 122.501 114.214 122.501 112.667V84.3333C122.501 82.7862 121.886 81.3025 120.792 80.2085C119.698 79.1146 118.214 78.5 116.667 78.5ZM119.167 112.667C119.167 113.33 118.904 113.966 118.435 114.434C117.966 114.903 117.33 115.167 116.667 115.167C116.004 115.167 115.368 114.903 114.9 114.434C114.431 113.966 114.167 113.33 114.167 112.667V84.3333C114.167 83.6703 114.431 83.0344 114.9 82.5656C115.368 82.0967 116.004 81.8333 116.667 81.8333C117.33 81.8333 117.966 82.0967 118.435 82.5656C118.904 83.0344 119.167 83.6703 119.167 84.3333V112.667Z" fill="white"/>
</g>
</g>
<defs>
<filter id="filter0_d_923_9482" x="0" y="0" width="203" height="203" filterUnits="userSpaceOnUse" color-interpolation-filters="sRGB">
<feFlood flood-opacity="0" result="BackgroundImageFix"/>
<feColorMatrix in="SourceAlpha" type="matrix" values="0 0 0 0 0 0 0 0 0 0 0 0 0 0 0 0 0 0 127 0" result="hardAlpha"/>
<feOffset dx="-6" dy="3"/>
<feGaussianBlur stdDeviation="7.5"/>
<feComposite in2="hardAlpha" operator="out"/>
<feColorMatrix type="matrix" values="0 0 0 0 0.984314 0 0 0 0 0.129412 0 0 0 0 0.14902 0 0 0 0.5 0"/>
<feBlend mode="normal" in2="BackgroundImageFix" result="effect1_dropShadow_923_9482"/>
<feBlend mode="normal" in="SourceGraphic" in2="effect1_dropShadow_923_9482" result="shape"/>
</filter>
<clipPath id="clip0_923_9482">
<rect width="40" height="40" fill="white" transform="translate(87.5 78.5)"/>
</clipPath>
</defs>
</svg>
