<svg width="16" height="15" viewBox="0 0 16 15" fill="none" xmlns="http://www.w3.org/2000/svg">
<g clip-path="url(#clip0_1078_5373)">
<path d="M12.6667 1.875H8.31467C8.21156 1.87564 8.10965 1.85426 8.01667 1.8125L5.91267 0.8225C5.63493 0.692841 5.32893 0.625241 5.01867 0.625H3.33333C2.4496 0.625992 1.60237 0.955551 0.97748 1.54139C0.352588 2.12722 0.00105857 2.9215 0 3.75L0 11.25C0.00105857 12.0785 0.352588 12.8728 0.97748 13.4586C1.60237 14.0444 2.4496 14.374 3.33333 14.375H12.6667C13.5504 14.374 14.3976 14.0444 15.0225 13.4586C15.6474 12.8728 15.9989 12.0785 16 11.25V5C15.9989 4.1715 15.6474 3.37722 15.0225 2.79139C14.3976 2.20555 13.5504 1.87599 12.6667 1.875ZM3.33333 1.875H5.01867C5.12177 1.87436 5.22368 1.89574 5.31667 1.9375L7.42067 2.92438C7.69813 3.05512 8.00413 3.12379 8.31467 3.125H12.6667C13.0654 3.12561 13.4548 3.23792 13.7849 3.44751C14.115 3.6571 14.3708 3.9544 14.5193 4.30125L1.33333 4.37125V3.75C1.33333 3.25272 1.54405 2.77581 1.91912 2.42417C2.29419 2.07254 2.8029 1.875 3.33333 1.875ZM12.6667 13.125H3.33333C2.8029 13.125 2.29419 12.9275 1.91912 12.5758C1.54405 12.2242 1.33333 11.7473 1.33333 11.25V5.62125L14.6667 5.55062V11.25C14.6667 11.7473 14.456 12.2242 14.0809 12.5758C13.7058 12.9275 13.1971 13.125 12.6667 13.125Z" fill="black"/>
</g>
<defs>
<clipPath id="clip0_1078_5373">
<rect width="16" height="15" fill="white"/>
</clipPath>
</defs>
</svg>
