<svg width="18" height="18" viewBox="0 0 18 18" fill="none" xmlns="http://www.w3.org/2000/svg">
<g clip-path="url(#clip0_651_26762)">
<path d="M16.5009 12.69V14.94C16.5018 15.1489 16.459 15.3556 16.3753 15.547C16.2916 15.7384 16.1689 15.9102 16.015 16.0514C15.8611 16.1926 15.6794 16.3001 15.4815 16.367C15.2836 16.434 15.074 16.4588 14.8659 16.44C12.5581 16.1892 10.3412 15.4006 8.39344 14.1375C6.37207 12.8503 4.69799 11.0861 3.51844 9.00002C2.25423 7.05006 1.46557 4.83049 1.21594 2.52002C1.17596 2.30171 1.18493 2.07725 1.24219 1.86282C1.29945 1.6484 1.40357 1.44935 1.54706 1.28003C1.69055 1.11072 1.86982 0.975352 2.07195 0.883699C2.27408 0.792045 2.49403 0.746387 2.71594 0.750018H4.96594C5.32992 0.746435 5.68279 0.875327 5.95876 1.11267C6.23474 1.35001 6.415 1.6796 6.46594 2.04002C6.56344 2.76002 6.73594 3.46502 6.99094 4.14752C7.09185 4.41596 7.11369 4.7077 7.05387 4.98818C6.99406 5.26865 6.85509 5.5261 6.65344 5.73002L5.93344 6.45752C7.14415 9.23365 9.35981 11.4493 12.1359 12.66L12.8634 11.9325C13.0674 11.7309 13.3248 11.5919 13.6053 11.5321C13.8858 11.4723 14.1775 11.4941 14.4459 11.595C15.1284 11.85 15.8334 12.0225 16.5534 12.12C16.5727 12.3116 16.5549 12.5051 16.5009 12.69Z" stroke="white" stroke-width="1.65" stroke-linecap="round" stroke-linejoin="round"/>
</g>
<defs>
<clipPath id="clip0_651_26762">
<rect width="18" height="18" fill="white"/>
</clipPath>
</defs>
</svg>
