<svg width="38" height="38" viewBox="0 0 38 38" fill="none" xmlns="http://www.w3.org/2000/svg">
<rect width="37.1428" height="37.1428" rx="18.5714" fill="#4C4CFB"/>
<g clip-path="url(#clip0_1151_5635)">
<path d="M24.2047 15.8968L17.8772 11.2539C17.383 10.892 16.7982 10.6741 16.1877 10.6243C15.5772 10.5744 14.9648 10.6947 14.4184 10.9716C13.8721 11.2486 13.4131 11.6714 13.0924 12.1933C12.7717 12.7152 12.6018 13.3157 12.6016 13.9282V23.2139C12.6017 23.8267 12.7716 24.4275 13.0924 24.9496C13.4133 25.4718 13.8725 25.8948 14.4192 26.1717C14.9659 26.4486 15.5786 26.5687 16.1893 26.5185C16.8001 26.4684 17.385 26.25 17.8792 25.8875L24.2067 21.2447C24.6267 20.9367 24.9683 20.534 25.2037 20.0694C25.4392 19.6048 25.5619 19.0913 25.5619 18.5704C25.5619 18.0495 25.4392 17.536 25.2037 17.0714C24.9683 16.6068 24.6267 16.2041 24.2067 15.8961L24.2047 15.8968ZM23.4194 20.1748L17.0919 24.8177C16.7954 25.0343 16.4448 25.1647 16.0788 25.1944C15.7128 25.2241 15.3457 25.1519 15.0182 24.9859C14.6907 24.8199 14.4155 24.5665 14.2231 24.2537C14.0307 23.941 13.9286 23.5811 13.9281 23.2139V13.9282C13.9244 13.5603 14.0246 13.1989 14.2171 12.8854C14.4097 12.5719 14.6867 12.3191 15.0165 12.156C15.297 12.0133 15.6072 11.9388 15.9219 11.9384C16.3436 11.94 16.7537 12.077 17.0919 12.3291L23.4194 16.9719C23.6711 17.1568 23.8758 17.3983 24.0168 17.6769C24.1579 17.9555 24.2314 18.2634 24.2314 18.5757C24.2314 18.888 24.1579 19.1959 24.0168 19.4745C23.8758 19.7531 23.6711 19.9946 23.4194 20.1795V20.1748Z" fill="white"/>
</g>
<defs>
<clipPath id="clip0_1151_5635">
<rect width="15.9184" height="15.9184" fill="white" transform="translate(10.6113 10.6121)"/>
</clipPath>
</defs>
</svg>
