<svg width="16" height="15" viewBox="0 0 16 15" fill="none" xmlns="http://www.w3.org/2000/svg">
<g clip-path="url(#clip0_1494_4042)">
<path d="M4.66667 3.75H15.3333C15.5101 3.75 15.6797 3.68415 15.8047 3.56694C15.9298 3.44973 16 3.29076 16 3.125C16 2.95924 15.9298 2.80027 15.8047 2.68306C15.6797 2.56585 15.5101 2.5 15.3333 2.5H4.66667C4.48986 2.5 4.32029 2.56585 4.19526 2.68306C4.07024 2.80027 4 2.95924 4 3.125C4 3.29076 4.07024 3.44973 4.19526 3.56694C4.32029 3.68415 4.48986 3.75 4.66667 3.75Z" fill="black"/>
<path d="M15.3333 6.875H4.66667C4.48986 6.875 4.32029 6.94085 4.19526 7.05806C4.07024 7.17527 4 7.33424 4 7.5C4 7.66576 4.07024 7.82474 4.19526 7.94195C4.32029 8.05916 4.48986 8.12501 4.66667 8.12501H15.3333C15.5101 8.12501 15.6797 8.05916 15.8047 7.94195C15.9298 7.82474 16 7.66576 16 7.5C16 7.33424 15.9298 7.17527 15.8047 7.05806C15.6797 6.94085 15.5101 6.875 15.3333 6.875Z" fill="black"/>
<path d="M15.3333 11.25H4.66667C4.48986 11.25 4.32029 11.3158 4.19526 11.4331C4.07024 11.5503 4 11.7092 4 11.875C4 12.0408 4.07024 12.1997 4.19526 12.3169C4.32029 12.4342 4.48986 12.5 4.66667 12.5H15.3333C15.5101 12.5 15.6797 12.4342 15.8047 12.3169C15.9298 12.1997 16 12.0408 16 11.875C16 11.7092 15.9298 11.5503 15.8047 11.4331C15.6797 11.3158 15.5101 11.25 15.3333 11.25Z" fill="black"/>
<path d="M1.33333 4.375C2.06971 4.375 2.66667 3.81535 2.66667 3.125C2.66667 2.43464 2.06971 1.875 1.33333 1.875C0.596954 1.875 0 2.43464 0 3.125C0 3.81535 0.596954 4.375 1.33333 4.375Z" fill="black"/>
<path d="M1.33333 8.75C2.06971 8.75 2.66667 8.19035 2.66667 7.5C2.66667 6.80964 2.06971 6.25 1.33333 6.25C0.596954 6.25 0 6.80964 0 7.5C0 8.19035 0.596954 8.75 1.33333 8.75Z" fill="black"/>
<path d="M1.33333 13.125C2.06971 13.125 2.66667 12.5654 2.66667 11.875C2.66667 11.1846 2.06971 10.625 1.33333 10.625C0.596954 10.625 0 11.1846 0 11.875C0 12.5654 0.596954 13.125 1.33333 13.125Z" fill="black"/>
</g>
<defs>
<clipPath id="clip0_1494_4042">
<rect width="16" height="15" fill="white"/>
</clipPath>
</defs>
</svg>
