<svg width="32" height="32" viewBox="0 0 32 32" fill="none" xmlns="http://www.w3.org/2000/svg">
<rect x="0.5" y="0.5" width="31" height="31" rx="15.5" fill="url(#paint0_linear_651_26773)"/>
<rect x="0.5" y="0.5" width="31" height="31" rx="15.5" stroke="white"/>
<path d="M13.1257 20V11.6H16.1497C16.8137 11.6 17.3617 11.716 17.7937 11.948C18.2337 12.172 18.5577 12.476 18.7657 12.86C18.9817 13.236 19.0897 13.664 19.0897 14.144C19.0897 14.592 18.9817 15.008 18.7657 15.392C18.5577 15.776 18.2337 16.084 17.7937 16.316C17.3617 16.548 16.8017 16.664 16.1137 16.664H14.5657V20H13.1257ZM17.5057 20L15.7417 16.292H17.3137L19.1617 20H17.5057ZM14.5657 15.596H16.0537C16.5897 15.596 16.9817 15.468 17.2297 15.212C17.4857 14.948 17.6137 14.604 17.6137 14.18C17.6137 13.764 17.4897 13.432 17.2417 13.184C16.9937 12.928 16.5937 12.8 16.0417 12.8H14.5657V15.596Z" fill="white"/>
<defs>
<linearGradient id="paint0_linear_651_26773" x1="0" y1="0" x2="32" y2="32" gradientUnits="userSpaceOnUse">
<stop stop-color="#A78BFA"/>
<stop offset="1" stop-color="#7C3AED"/>
</linearGradient>
</defs>
</svg>
