<svg width="20" height="22" viewBox="0 0 20 22" fill="none" xmlns="http://www.w3.org/2000/svg">
<path d="M20 9.43147V5.59127C18.1528 5.59127 16.7431 5.11125 15.8333 4.17824C14.8996 3.11343 14.3766 1.76497 14.3542 0.365089V0.0878919L10.625 0V15.5974C10.4971 16.2779 10.1578 16.9039 9.65288 17.3907C9.14799 17.8775 8.50182 18.2018 7.80162 18.3198C7.10142 18.4378 6.3809 18.3438 5.73733 18.0504C5.09375 17.7571 4.55811 17.2786 4.20272 16.6795C3.84733 16.0804 3.6893 15.3896 3.74996 14.7003C3.81062 14.011 4.08705 13.3564 4.54194 12.8249C4.99684 12.2934 5.60828 11.9106 6.29372 11.7281C6.97917 11.5456 7.70562 11.5723 8.375 11.8045V8.08605C7.98472 8.02379 7.58993 7.99213 7.19445 7.99139C5.77152 7.99139 4.38055 8.40219 3.19743 9.17183C2.01431 9.94147 1.09218 11.0354 0.547647 12.3153C0.00311708 13.5951 -0.139357 15.0035 0.138242 16.3622C0.415842 17.7209 1.10105 18.9689 2.10721 19.9485C3.11337 20.9281 4.39529 21.5951 5.79088 21.8654C7.18646 22.1357 8.63303 21.997 9.94764 21.4668C11.2623 20.9367 12.3859 20.0389 13.1764 18.8871C13.9669 17.7352 14.3889 16.381 14.3889 14.9957C14.3881 14.7087 14.3696 14.4219 14.3333 14.1371V7.95083C16.029 8.98183 18.0019 9.49732 20 9.43147Z" fill="black"/>
</svg>
