<svg width="17" height="22" viewBox="0 0 17 22" fill="none" xmlns="http://www.w3.org/2000/svg">
<path d="M14.6667 2.77017C14.6667 2.76283 14.6667 2.75733 14.6667 2.75V0.916667C14.6667 0.673552 14.5701 0.440394 14.3982 0.268485C14.2263 0.0965771 13.9931 0 13.75 0C13.5069 0 13.2737 0.0965771 13.1018 0.268485C12.9299 0.440394 12.8333 0.673552 12.8333 0.916667V1.925C12.5316 1.86374 12.2245 1.83303 11.9167 1.83333H11V0.916667C11 0.673552 10.9034 0.440394 10.7315 0.268485C10.5596 0.0965771 10.3264 0 10.0833 0C9.84022 0 9.60706 0.0965771 9.43515 0.268485C9.26324 0.440394 9.16667 0.673552 9.16667 0.916667V1.83333H7.33333V0.916667C7.33333 0.673552 7.23676 0.440394 7.06485 0.268485C6.89294 0.0965771 6.65978 0 6.41667 0C6.17355 0 5.94039 0.0965771 5.76849 0.268485C5.59658 0.440394 5.5 0.673552 5.5 0.916667V1.83333H4.58333C4.27547 1.83303 3.96837 1.86374 3.66667 1.925V0.916667C3.66667 0.673552 3.57009 0.440394 3.39818 0.268485C3.22627 0.0965771 2.99312 0 2.75 0C2.50688 0 2.27373 0.0965771 2.10182 0.268485C1.92991 0.440394 1.83333 0.673552 1.83333 0.916667V2.75V2.77017C1.26572 3.19401 0.804556 3.74416 0.486351 4.37707C0.168146 5.00998 0.00163563 5.70827 0 6.41667V17.4167C0.00145554 18.6318 0.484808 19.7967 1.34403 20.656C2.20326 21.5152 3.3682 21.9985 4.58333 22H11.9167C13.1318 21.9985 14.2967 21.5152 15.156 20.656C16.0152 19.7967 16.4985 18.6318 16.5 17.4167V6.41667C16.4984 5.70827 16.3319 5.00998 16.0136 4.37707C15.6954 3.74416 15.2343 3.19401 14.6667 2.77017ZM14.6667 17.4167C14.6667 18.146 14.3769 18.8455 13.8612 19.3612C13.3455 19.8769 12.646 20.1667 11.9167 20.1667H4.58333C3.85399 20.1667 3.15451 19.8769 2.63879 19.3612C2.12306 18.8455 1.83333 18.146 1.83333 17.4167V6.41667C1.83333 5.68732 2.12306 4.98785 2.63879 4.47212C3.15451 3.9564 3.85399 3.66667 4.58333 3.66667H11.9167C12.646 3.66667 13.3455 3.9564 13.8612 4.47212C14.3769 4.98785 14.6667 5.68732 14.6667 6.41667V17.4167ZM12.8333 7.33333C12.8333 7.57645 12.7368 7.80961 12.5648 7.98151C12.3929 8.15342 12.1598 8.25 11.9167 8.25H4.58333C4.34022 8.25 4.10706 8.15342 3.93515 7.98151C3.76324 7.80961 3.66667 7.57645 3.66667 7.33333C3.66667 7.09022 3.76324 6.85706 3.93515 6.68515C4.10706 6.51324 4.34022 6.41667 4.58333 6.41667H11.9167C12.1598 6.41667 12.3929 6.51324 12.5648 6.68515C12.7368 6.85706 12.8333 7.09022 12.8333 7.33333ZM12.8333 11C12.8333 11.2431 12.7368 11.4763 12.5648 11.6482C12.3929 11.8201 12.1598 11.9167 11.9167 11.9167H4.58333C4.34022 11.9167 4.10706 11.8201 3.93515 11.6482C3.76324 11.4763 3.66667 11.2431 3.66667 11C3.66667 10.7569 3.76324 10.5237 3.93515 10.3518C4.10706 10.1799 4.34022 10.0833 4.58333 10.0833H11.9167C12.1598 10.0833 12.3929 10.1799 12.5648 10.3518C12.7368 10.5237 12.8333 10.7569 12.8333 11ZM9.16667 14.6667C9.16667 14.9098 9.07009 15.1429 8.89818 15.3148C8.72627 15.4868 8.49312 15.5833 8.25 15.5833H4.58333C4.34022 15.5833 4.10706 15.4868 3.93515 15.3148C3.76324 15.1429 3.66667 14.9098 3.66667 14.6667C3.66667 14.4236 3.76324 14.1904 3.93515 14.0185C4.10706 13.8466 4.34022 13.75 4.58333 13.75H8.25C8.49312 13.75 8.72627 13.8466 8.89818 14.0185C9.07009 14.1904 9.16667 14.4236 9.16667 14.6667Z" fill="#2B2B2B"/>
</svg>
