<svg width="22" height="22" viewBox="0 0 22 22" fill="none" xmlns="http://www.w3.org/2000/svg">
<path d="M6.41667 5.50032H21.0833C21.3264 5.50032 21.5596 5.40374 21.7315 5.23184C21.9034 5.05993 22 4.82677 22 4.58366C22 4.34054 21.9034 4.10739 21.7315 3.93548C21.5596 3.76357 21.3264 3.66699 21.0833 3.66699H6.41667C6.17355 3.66699 5.94039 3.76357 5.76849 3.93548C5.59658 4.10739 5.5 4.34054 5.5 4.58366C5.5 4.82677 5.59658 5.05993 5.76849 5.23184C5.94039 5.40374 6.17355 5.50032 6.41667 5.50032Z" fill="#555555"/>
<path d="M21.0833 10.083H6.41667C6.17355 10.083 5.94039 10.1796 5.76849 10.3515C5.59658 10.5234 5.5 10.7566 5.5 10.9997C5.5 11.2428 5.59658 11.476 5.76849 11.6479C5.94039 11.8198 6.17355 11.9164 6.41667 11.9164H21.0833C21.3264 11.9164 21.5596 11.8198 21.7315 11.6479C21.9034 11.476 22 11.2428 22 10.9997C22 10.7566 21.9034 10.5234 21.7315 10.3515C21.5596 10.1796 21.3264 10.083 21.0833 10.083Z" fill="#374957"/>
<path d="M21.0833 16.5H6.41667C6.17355 16.5 5.94039 16.5966 5.76849 16.7685C5.59658 16.9404 5.5 17.1736 5.5 17.4167C5.5 17.6598 5.59658 17.8929 5.76849 18.0649C5.94039 18.2368 6.17355 18.3333 6.41667 18.3333H21.0833C21.3264 18.3333 21.5596 18.2368 21.7315 18.0649C21.9034 17.8929 22 17.6598 22 17.4167C22 17.1736 21.9034 16.9404 21.7315 16.7685C21.5596 16.5966 21.3264 16.5 21.0833 16.5Z" fill="#374957"/>
<path d="M1.83333 6.41666C2.84586 6.41666 3.66667 5.59585 3.66667 4.58333C3.66667 3.57081 2.84586 2.75 1.83333 2.75C0.820811 2.75 0 3.57081 0 4.58333C0 5.59585 0.820811 6.41666 1.83333 6.41666Z" fill="#374957"/>
<path d="M1.83333 12.8337C2.84586 12.8337 3.66667 12.0128 3.66667 11.0003C3.66667 9.9878 2.84586 9.16699 1.83333 9.16699C0.820811 9.16699 0 9.9878 0 11.0003C0 12.0128 0.820811 12.8337 1.83333 12.8337Z" fill="#374957"/>
<path d="M1.83333 19.2497C2.84586 19.2497 3.66667 18.4289 3.66667 17.4163C3.66667 16.4038 2.84586 15.583 1.83333 15.583C0.820811 15.583 0 16.4038 0 17.4163C0 18.4289 0.820811 19.2497 1.83333 19.2497Z" fill="#374957"/>
</svg>
