<svg width="22" height="17" viewBox="0 0 22 17" fill="none" xmlns="http://www.w3.org/2000/svg">
<path d="M21.6667 2.03188C20.8524 2.37156 19.9912 2.59611 19.11 2.69854C20.0397 2.1645 20.7364 1.32436 21.0708 0.333959C20.1972 0.834024 19.2408 1.18635 18.2433 1.37563C17.5766 0.680388 16.6887 0.217601 15.719 0.0598455C14.7492 -0.0979096 13.7524 0.0582903 12.8849 0.503948C12.0175 0.949605 11.3283 1.65951 10.9257 2.52233C10.523 3.38515 10.4296 4.35207 10.66 5.27146C8.89355 5.18555 7.16565 4.74328 5.58854 3.9734C4.01144 3.20351 2.62042 2.12322 1.50583 0.802708C1.1149 1.45913 0.909479 2.20252 0.91 2.95896C0.908614 3.66144 1.0879 4.35335 1.4319 4.97309C1.7759 5.59282 2.27394 6.12116 2.88167 6.51104C2.17531 6.49256 1.48404 6.31031 0.866667 5.97979V6.03188C0.871961 7.01614 1.23066 7.96843 1.88209 8.72767C2.53352 9.48692 3.43769 10.0065 4.44167 10.1985C4.05519 10.3116 3.65395 10.3713 3.25 10.3756C2.97038 10.3725 2.69146 10.3481 2.41583 10.3027C2.70174 11.1494 3.25501 11.8893 3.99867 12.4195C4.74232 12.9498 5.63937 13.2439 6.565 13.261C5.00197 14.4436 3.07221 15.089 1.08333 15.0944C0.721213 15.0955 0.35938 15.0746 0 15.0319C2.03063 16.2926 4.39705 16.9618 6.81417 16.959C8.48217 16.9756 10.1369 16.6725 11.6817 16.0674C13.2265 15.4622 14.6304 14.5672 15.8115 13.4345C16.9925 12.3018 17.927 10.9542 18.5603 9.47032C19.1936 7.98648 19.513 6.39617 19.5 4.79229C19.5 4.61521 19.5 4.42771 19.5 4.24021C20.3501 3.63064 21.0833 2.88336 21.6667 2.03188Z" fill="black"/>
</svg>
