<svg width="320" height="55" viewBox="0 0 320 55" fill="none" xmlns="http://www.w3.org/2000/svg">
<rect x="0.388471" y="0.388471" width="319.046" height="53.7407" rx="26.8703" fill="url(#paint0_linear_615_2342)" stroke="url(#paint1_linear_615_2342)" stroke-width="0.776942"/>
<path d="M43.0166 12.4375C43.3355 12.4377 43.5938 12.7706 43.5938 13.1816V44.4531C43.5935 44.8639 43.3355 45.197 43.0166 45.1973C42.6977 45.1972 42.4387 44.864 42.4385 44.4531V13.1816C42.4385 12.7705 42.6976 12.4376 43.0166 12.4375ZM82.3145 12.4375C82.6335 12.4375 82.8926 12.7705 82.8926 13.1816V44.4531C82.8924 44.8641 82.6335 45.1973 82.3145 45.1973C81.9957 45.1971 81.7376 44.8639 81.7373 44.4531V13.1816C81.7373 12.7706 81.9955 12.4377 82.3145 12.4375ZM146.328 12.4375C146.647 12.4375 146.906 12.7705 146.906 13.1816V44.4531C146.906 44.8641 146.647 45.1973 146.328 45.1973C146.009 45.1969 145.75 44.8638 145.75 44.4531V13.1816C145.75 12.7707 146.009 12.4378 146.328 12.4375ZM185.619 12.4375C185.938 12.4377 186.196 12.7706 186.196 13.1816V44.4531C186.196 44.8639 185.938 45.197 185.619 45.1973C185.3 45.197 185.041 44.8639 185.041 44.4531V13.1816C185.041 12.7706 185.3 12.4377 185.619 12.4375ZM244.666 12.4375C244.985 12.4376 245.244 12.7705 245.244 13.1816V44.4531C245.244 44.864 244.985 45.1972 244.666 45.1973C244.347 45.1972 244.088 44.864 244.088 44.4531V13.1816C244.088 12.7705 244.347 12.4376 244.666 12.4375ZM283.934 12.4375C284.252 12.4378 284.511 12.7707 284.511 13.1816V44.4531C284.511 44.8639 284.252 45.1969 283.934 45.1973C283.615 45.1972 283.356 44.864 283.355 44.4531V13.1816C283.355 12.7705 283.615 12.4376 283.934 12.4375ZM25.4385 12.5293C25.7576 12.5293 26.0166 12.8632 26.0166 13.2744V44.3516C26.0165 44.7626 25.7575 45.0967 25.4385 45.0967C25.1195 45.0966 24.8605 44.7626 24.8604 44.3516V13.2744C24.8604 12.8633 25.1194 12.5294 25.4385 12.5293ZM64.7363 12.5293C65.0554 12.5293 65.3145 12.8632 65.3145 13.2744V44.3516C65.3143 44.7626 65.0553 45.0967 64.7363 45.0967C64.4176 45.0963 64.1593 44.7623 64.1592 44.3516V13.2744C64.1592 12.8635 64.4175 12.5297 64.7363 12.5293ZM128.74 12.5293C129.059 12.5293 129.318 12.8632 129.318 13.2744V44.3516C129.318 44.7626 129.059 45.0967 128.74 45.0967C128.422 45.0962 128.163 44.7623 128.163 44.3516V13.2744C128.163 12.8635 128.421 12.5298 128.74 12.5293ZM168.051 12.5293C168.37 12.5293 168.629 12.8632 168.629 13.2744V44.3516C168.629 44.7626 168.37 45.0967 168.051 45.0967C167.732 45.0963 167.473 44.7624 167.473 44.3516V13.2744C167.473 12.8634 167.732 12.5296 168.051 12.5293ZM227.088 12.5293C227.407 12.5293 227.666 12.8632 227.666 13.2744V44.3516C227.666 44.7626 227.407 45.0967 227.088 45.0967C226.769 45.0965 226.511 44.7625 226.511 44.3516V13.2744C226.511 12.8634 226.769 12.5295 227.088 12.5293ZM266.355 12.5293C266.674 12.5294 266.934 12.8633 266.934 13.2744V44.3516C266.933 44.7625 266.674 45.0966 266.355 45.0967C266.037 45.0966 265.777 44.7625 265.777 44.3516V13.2744C265.777 12.8633 266.036 12.5294 266.355 12.5293ZM46.6357 17.3232C46.9548 17.3232 47.2138 17.6563 47.2139 18.0674V39.5703C47.2137 39.9815 46.9547 40.3145 46.6357 40.3145C46.3169 40.3142 46.0587 39.9812 46.0586 39.5703V18.0674C46.0587 17.6565 46.3169 17.3235 46.6357 17.3232ZM53.9395 17.3232C54.2584 17.3233 54.5175 17.6564 54.5176 18.0674V39.5703C54.5174 39.9814 54.2584 40.3144 53.9395 40.3145C53.6205 40.3144 53.3615 39.9813 53.3613 39.5703V18.0674C53.3614 17.6564 53.6205 17.3233 53.9395 17.3232ZM85.9346 17.3232C86.2535 17.3234 86.5116 17.6564 86.5117 18.0674V39.5703C86.5116 39.9814 86.2535 40.3143 85.9346 40.3145C85.6156 40.3144 85.3566 39.9813 85.3564 39.5703V18.0674C85.3565 17.6564 85.6156 17.3233 85.9346 17.3232ZM93.2373 17.3232C93.5563 17.3232 93.8153 17.6563 93.8154 18.0674V39.5703C93.8153 39.9815 93.5563 40.3145 93.2373 40.3145C92.9185 40.3141 92.6603 39.9811 92.6602 39.5703V18.0674C92.6603 17.6565 92.9185 17.3236 93.2373 17.3232ZM149.938 17.3232C150.257 17.3235 150.516 17.6565 150.516 18.0674V39.5703C150.515 39.9813 150.257 40.3142 149.938 40.3145C149.62 40.3142 149.36 39.9812 149.36 39.5703V18.0674C149.36 17.6565 149.62 17.3235 149.938 17.3232ZM157.251 17.3232C157.57 17.3232 157.829 17.6563 157.829 18.0674V39.5703C157.829 39.9815 157.57 40.3145 157.251 40.3145C156.932 40.314 156.674 39.9811 156.674 39.5703V18.0674C156.674 17.6566 156.932 17.3237 157.251 17.3232ZM189.238 17.3232C189.557 17.3232 189.816 17.6563 189.816 18.0674V39.5703C189.816 39.9815 189.557 40.3145 189.238 40.3145C188.92 40.314 188.661 39.9811 188.661 39.5703V18.0674C188.661 17.6566 188.92 17.3237 189.238 17.3232ZM196.542 17.3232C196.861 17.3234 197.119 17.6564 197.119 18.0674V39.5703C197.119 39.9814 196.861 40.3143 196.542 40.3145C196.223 40.3142 195.964 39.9812 195.964 39.5703V18.0674C195.964 17.6565 196.223 17.3235 196.542 17.3232ZM248.275 17.3232C248.594 17.3232 248.853 17.6563 248.854 18.0674V39.5703C248.853 39.9815 248.594 40.3145 248.275 40.3145C247.957 40.3141 247.698 39.9812 247.698 39.5703V18.0674C247.698 17.6565 247.957 17.3236 248.275 17.3232ZM255.589 17.3232C255.908 17.3232 256.167 17.6563 256.167 18.0674V39.5703C256.167 39.9815 255.908 40.3145 255.589 40.3145C255.27 40.3143 255.011 39.9813 255.011 39.5703V18.0674C255.011 17.6564 255.27 17.3234 255.589 17.3232ZM287.553 17.3232C287.872 17.3232 288.131 17.6563 288.131 18.0674V39.5703C288.131 39.9815 287.872 40.3145 287.553 40.3145C287.234 40.3143 286.976 39.9812 286.976 39.5703V18.0674C286.976 17.6564 287.234 17.3234 287.553 17.3232ZM294.856 17.3232C295.175 17.3234 295.434 17.6564 295.434 18.0674V39.5703C295.433 39.9813 295.175 40.3143 294.856 40.3145C294.538 40.3144 294.278 39.9813 294.278 39.5703V18.0674C294.278 17.6564 294.537 17.3233 294.856 17.3232ZM29.0068 17.7275C29.3258 17.7278 29.584 18.0616 29.584 18.4727V39.1562C29.5838 39.567 29.3257 39.9002 29.0068 39.9004C28.6879 39.9003 28.4289 39.5671 28.4287 39.1562V18.4727C28.4287 18.0615 28.6878 17.7276 29.0068 17.7275ZM68.3066 17.7275C68.6257 17.7275 68.8848 18.0615 68.8848 18.4727V39.1562C68.8845 39.5672 68.6257 39.9004 68.3066 39.9004C67.9879 39.9001 67.7297 39.567 67.7295 39.1562V18.4727C67.7295 18.0616 67.9878 17.7278 68.3066 17.7275ZM132.318 17.7275C132.637 17.7275 132.896 18.0615 132.896 18.4727V39.1562C132.896 39.5672 132.637 39.9004 132.318 39.9004C132 39.9001 131.74 39.567 131.74 39.1562V18.4727C131.74 18.0617 131.999 17.7279 132.318 17.7275ZM171.619 17.7275C171.938 17.7277 172.196 18.0616 172.196 18.4727V39.1562C172.196 39.5671 171.938 39.9002 171.619 39.9004C171.3 39.9002 171.041 39.567 171.041 39.1562V18.4727C171.041 18.0616 171.3 17.7278 171.619 17.7275ZM230.658 17.7275C230.977 17.7275 231.236 18.0615 231.236 18.4727V39.1562C231.236 39.5672 230.977 39.9004 230.658 39.9004C230.339 39.9003 230.08 39.5671 230.08 39.1562V18.4727C230.08 18.0615 230.339 17.7276 230.658 17.7275ZM269.924 17.7275C270.243 17.7279 270.501 18.0617 270.501 18.4727V39.1562C270.501 39.567 270.243 39.9001 269.924 39.9004C269.605 39.9003 269.346 39.5671 269.346 39.1562V18.4727C269.346 18.0615 269.605 17.7276 269.924 17.7275ZM21.7969 19.0254C22.1158 19.0255 22.3749 19.3586 22.375 19.7695V37.8623C22.3749 38.2733 22.1158 38.6073 21.7969 38.6074C21.4779 38.6073 21.2189 38.2733 21.2188 37.8623V19.7695C21.2189 19.3586 21.4779 19.0255 21.7969 19.0254ZM61.085 19.0254C61.404 19.0254 61.6629 19.3585 61.6631 19.7695V37.8623C61.6629 38.2733 61.404 38.6074 61.085 38.6074C60.7661 38.6072 60.5079 38.2732 60.5078 37.8623V19.7695C60.508 19.3586 60.7661 19.0256 61.085 19.0254ZM125.099 19.0254C125.418 19.0254 125.677 19.3585 125.677 19.7695V37.8623C125.677 38.2733 125.418 38.6074 125.099 38.6074C124.78 38.607 124.522 38.2731 124.521 37.8623V19.7695C124.522 19.3587 124.78 19.0258 125.099 19.0254ZM164.399 19.0254C164.718 19.0255 164.977 19.3586 164.978 19.7695V37.8623C164.977 38.2733 164.718 38.6073 164.399 38.6074C164.081 38.6072 163.821 38.2732 163.821 37.8623V19.7695C163.821 19.3587 164.081 19.0256 164.399 19.0254ZM223.438 19.0254C223.757 19.0254 224.016 19.3585 224.017 19.7695V37.8623C224.016 38.2733 223.757 38.6074 223.438 38.6074C223.12 38.6073 222.86 38.2732 222.86 37.8623V19.7695C222.86 19.3586 223.12 19.0255 223.438 19.0254ZM262.714 19.0254C263.033 19.0256 263.291 19.3586 263.291 19.7695V37.8623C263.291 38.2732 263.033 38.6072 262.714 38.6074C262.395 38.6073 262.136 38.2733 262.136 37.8623V19.7695C262.136 19.3586 262.395 19.0255 262.714 19.0254ZM39.5195 20.4805C39.8386 20.4805 40.0977 20.8144 40.0977 21.2256V36.3994C40.0975 36.8104 39.8385 37.1445 39.5195 37.1445C39.2007 37.1442 38.9425 36.8103 38.9424 36.3994V21.2256C38.9424 20.8146 39.2006 20.4808 39.5195 20.4805ZM78.8184 20.4805C79.1374 20.4806 79.3955 20.8145 79.3955 21.2256V36.3994C79.3954 36.8104 79.1373 37.1444 78.8184 37.1445C78.4994 37.1445 78.2404 36.8104 78.2402 36.3994V21.2256C78.2402 20.8144 78.4993 20.4805 78.8184 20.4805ZM142.822 20.4805C143.141 20.4807 143.399 20.8146 143.399 21.2256V36.3994C143.399 36.8103 143.141 37.1443 142.822 37.1445C142.503 37.1443 142.244 36.8103 142.244 36.3994V21.2256C142.244 20.8146 142.503 20.4807 142.822 20.4805ZM182.122 20.4805C182.441 20.4805 182.7 20.8144 182.7 21.2256V36.3994C182.7 36.8104 182.441 37.1445 182.122 37.1445C181.803 37.1441 181.545 36.8102 181.545 36.3994V21.2256C181.545 20.8147 181.803 20.4809 182.122 20.4805ZM241.17 20.4805C241.489 20.4808 241.747 20.8146 241.747 21.2256V36.3994C241.747 36.8103 241.489 37.1442 241.17 37.1445C240.851 37.1444 240.592 36.8104 240.592 36.3994V21.2256C240.592 20.8145 240.851 20.4806 241.17 20.4805ZM280.446 20.4805C280.765 20.4805 281.024 20.8144 281.024 21.2256V36.3994C281.024 36.8104 280.765 37.1445 280.446 37.1445C280.128 37.1442 279.869 36.8103 279.869 36.3994V21.2256C279.869 20.8146 280.127 20.4808 280.446 20.4805ZM32.4932 23.6553C32.8122 23.6554 33.0703 23.9883 33.0703 24.3994V33.2451C33.0699 33.656 32.812 33.9891 32.4932 33.9893C32.1743 33.9892 31.9154 33.6559 31.915 33.2451V24.3994C31.915 23.9883 32.1741 23.6553 32.4932 23.6553ZM50.1445 23.6553C50.4636 23.6553 50.7227 23.9882 50.7227 24.3994V33.2451C50.7223 33.6561 50.4634 33.9892 50.1445 33.9893C49.8257 33.9892 49.5667 33.6559 49.5664 33.2451V24.3994C49.5664 23.9883 49.8255 23.6553 50.1445 23.6553ZM57.4658 23.6553C57.7848 23.6555 58.043 23.9884 58.043 24.3994V33.2451C58.0427 33.6559 57.7847 33.989 57.4658 33.9893C57.147 33.9892 56.888 33.6559 56.8877 33.2451V24.3994C56.8877 23.9883 57.1468 23.6553 57.4658 23.6553ZM71.7832 23.6553C72.1023 23.6553 72.3613 23.9882 72.3613 24.3994V33.2451C72.3609 33.6561 72.1021 33.9893 71.7832 33.9893C71.4645 33.989 71.2064 33.6558 71.2061 33.2451V24.3994C71.2061 23.9884 71.4643 23.6556 71.7832 23.6553ZM89.4727 23.6553C89.7917 23.6553 90.0508 23.9883 90.0508 24.3994V33.2451C90.0505 33.656 89.7915 33.9892 89.4727 33.9893C89.1538 33.9892 88.8948 33.6559 88.8945 33.2451V24.3994C88.8945 23.9883 89.1536 23.6553 89.4727 23.6553ZM135.797 23.6553C136.116 23.6553 136.375 23.9882 136.375 24.3994V33.2451C136.375 33.6561 136.116 33.9893 135.797 33.9893C135.478 33.9888 135.22 33.6557 135.22 33.2451V24.3994C135.22 23.9885 135.478 23.6557 135.797 23.6553ZM153.477 23.6553C153.796 23.6554 154.054 23.9883 154.054 24.3994V33.2451C154.053 33.656 153.795 33.9891 153.477 33.9893C153.158 33.989 152.899 33.6558 152.898 33.2451V24.3994C152.898 23.9884 153.158 23.6555 153.477 23.6553ZM160.777 23.6553C161.096 23.6553 161.355 23.9882 161.355 24.3994V33.2451C161.355 33.6561 161.096 33.9893 160.777 33.9893C160.459 33.9889 160.201 33.6557 160.2 33.2451V24.3994C160.2 23.9885 160.458 23.6556 160.777 23.6553ZM175.098 23.6553C175.417 23.6553 175.676 23.9882 175.676 24.3994V33.2451C175.675 33.6561 175.417 33.9892 175.098 33.9893C174.779 33.989 174.52 33.6558 174.52 33.2451V24.3994C174.52 23.9884 174.779 23.6555 175.098 23.6553ZM192.767 23.6553C193.086 23.6553 193.345 23.9882 193.345 24.3994V33.2451C193.344 33.6561 193.085 33.9893 192.767 33.9893C192.448 33.9888 192.19 33.6557 192.189 33.2451V24.3994C192.189 23.9885 192.448 23.6557 192.767 23.6553ZM234.145 23.6553C234.464 23.6553 234.723 23.9882 234.723 24.3994V33.2451C234.722 33.6561 234.463 33.9893 234.145 33.9893C233.826 33.989 233.568 33.6558 233.567 33.2451V24.3994C233.567 23.9884 233.826 23.6555 234.145 23.6553ZM251.824 23.6553C252.143 23.6555 252.401 23.9884 252.401 24.3994V33.2451C252.401 33.6559 252.143 33.989 251.824 33.9893C251.505 33.9892 251.246 33.6559 251.246 33.2451V24.3994C251.246 23.9883 251.505 23.6554 251.824 23.6553ZM259.107 23.6553C259.426 23.6553 259.686 23.9883 259.686 24.3994V33.2451C259.685 33.656 259.426 33.9892 259.107 33.9893C258.789 33.9892 258.53 33.6559 258.529 33.2451V24.3994C258.529 23.9883 258.788 23.6554 259.107 23.6553ZM273.412 23.6553C273.731 23.6554 273.989 23.9883 273.989 24.3994V33.2451C273.989 33.656 273.731 33.9892 273.412 33.9893C273.093 33.9892 272.834 33.6559 272.834 33.2451V24.3994C272.834 23.9883 273.093 23.6554 273.412 23.6553ZM291.081 23.6553C291.4 23.6553 291.659 23.9882 291.659 24.3994V33.2451C291.659 33.6561 291.4 33.9893 291.081 33.9893C290.762 33.9891 290.503 33.6558 290.503 33.2451V24.3994C290.503 23.9883 290.762 23.6555 291.081 23.6553ZM101.95 24.8281C102.269 24.8281 102.528 25.0524 102.528 25.3281V32.3174C102.528 32.5929 102.269 32.8164 101.95 32.8164C101.631 32.8163 101.372 32.5929 101.372 32.3174V25.3281C101.372 25.0525 101.631 24.8282 101.95 24.8281ZM112.912 24.8281C113.231 24.8281 113.49 25.0524 113.49 25.3281V32.3174C113.49 32.5929 113.231 32.8164 112.912 32.8164C112.593 32.8164 112.334 32.5929 112.334 32.3174V25.3281C112.334 25.0524 112.593 24.8281 112.912 24.8281ZM18.1865 24.8232C18.5056 24.8232 18.7646 25.0466 18.7646 25.3223V32.3115C18.7644 32.5871 18.5055 32.8105 18.1865 32.8105C17.8678 32.8103 17.6096 32.5869 17.6094 32.3115V25.3223C17.6094 25.0467 17.8677 24.8235 18.1865 24.8232ZM121.489 24.8232C121.808 24.8234 122.066 25.0467 122.066 25.3223V32.3115C122.066 32.587 121.808 32.8104 121.489 32.8105C121.17 32.8104 120.911 32.587 120.911 32.3115V25.3223C120.911 25.0467 121.17 24.8234 121.489 24.8232ZM211.511 24.8232C211.83 24.8232 212.089 25.0466 212.089 25.3223V32.3115C212.089 32.5871 211.83 32.8105 211.511 32.8105C211.192 32.8103 210.934 32.5869 210.934 32.3115V25.3223C210.934 25.0467 211.192 24.8235 211.511 24.8232ZM219.821 24.8232C220.14 24.8233 220.399 25.0466 220.399 25.3223V32.3115C220.399 32.5871 220.14 32.8105 219.821 32.8105C219.502 32.8105 219.243 32.587 219.243 32.3115V25.3223C219.243 25.0466 219.502 24.8233 219.821 24.8232ZM96.7637 25.3564C97.0827 25.3564 97.3418 25.5798 97.3418 25.8555V31.7861C97.3416 32.0618 97.0827 32.2852 96.7637 32.2852C96.4448 32.285 96.1867 32.0616 96.1865 31.7861V25.8555C96.1865 25.5798 96.4447 25.3566 96.7637 25.3564ZM200.078 25.3564C200.397 25.3565 200.655 25.5798 200.655 25.8555V31.7861C200.655 32.0617 200.397 32.2851 200.078 32.2852C199.759 32.285 199.5 32.0616 199.5 31.7861V25.8555C199.5 25.5799 199.759 25.3566 200.078 25.3564ZM298.383 25.3564C298.702 25.3567 298.96 25.5799 298.96 25.8555V31.7861C298.96 32.0616 298.702 32.2849 298.383 32.2852C298.064 32.2851 297.805 32.0617 297.805 31.7861V25.8555C297.805 25.5798 298.064 25.3565 298.383 25.3564ZM104.052 25.7061C104.371 25.7061 104.63 26.04 104.63 26.4512V31.1865C104.63 31.5977 104.371 31.9307 104.052 31.9307C103.733 31.9303 103.475 31.5974 103.475 31.1865V26.4512C103.475 26.0402 103.733 25.7064 104.052 25.7061ZM115.005 25.7061C115.324 25.7061 115.583 26.04 115.583 26.4512V31.1865C115.583 31.5977 115.324 31.9307 115.005 31.9307C114.686 31.9305 114.428 31.5975 114.428 31.1865V26.4512C114.428 26.0401 114.686 25.7063 115.005 25.7061ZM36.0928 25.7051C36.4118 25.7051 36.6707 26.0382 36.6709 26.4492V31.1846C36.6708 31.5957 36.4119 31.9297 36.0928 31.9297C35.7739 31.9295 35.5148 31.5955 35.5146 31.1846V26.4492C35.5148 26.0383 35.7739 25.7052 36.0928 25.7051ZM75.3916 25.7051C75.7104 25.7053 75.9686 26.0384 75.9688 26.4492V31.1846C75.9686 31.5956 75.7105 31.9294 75.3916 31.9297C75.0727 31.9296 74.8136 31.5956 74.8135 31.1846V26.4492C74.8136 26.0383 75.0727 25.7052 75.3916 25.7051ZM139.405 25.7051C139.724 25.7053 139.982 26.0384 139.982 26.4492V31.1846C139.982 31.5956 139.724 31.9294 139.405 31.9297C139.086 31.9294 138.827 31.5955 138.827 31.1846V26.4492C138.827 26.0384 139.086 25.7053 139.405 25.7051ZM178.697 25.7051C179.016 25.7051 179.275 26.0382 179.275 26.4492V31.1846C179.275 31.5957 179.016 31.9297 178.697 31.9297C178.379 31.9293 178.12 31.5953 178.12 31.1846V26.4492C178.12 26.0385 178.379 25.7055 178.697 25.7051ZM213.603 25.7051C213.921 25.7054 214.18 26.0384 214.18 26.4492V31.1846C214.18 31.5955 213.921 31.9294 213.603 31.9297C213.284 31.9296 213.025 31.5956 213.024 31.1846V26.4492C213.025 26.0383 213.284 25.7052 213.603 25.7051ZM237.744 25.7051C238.063 25.7051 238.322 26.0382 238.322 26.4492V31.1846C238.322 31.5957 238.063 31.9297 237.744 31.9297C237.425 31.9293 237.167 31.5953 237.167 31.1846V26.4492C237.167 26.0385 237.425 25.7055 237.744 25.7051ZM277.014 25.7051C277.333 25.7051 277.592 26.0382 277.592 26.4492V31.1846C277.592 31.5957 277.333 31.9297 277.014 31.9297C276.695 31.9294 276.437 31.5954 276.437 31.1846V26.4492C276.437 26.0384 276.695 25.7054 277.014 25.7051ZM99.3447 26.6992C99.6637 26.6992 99.9227 26.8362 99.9229 27.0049V30.6348C99.9224 30.8033 99.6636 30.9404 99.3447 30.9404C99.026 30.9404 98.767 30.8033 98.7666 30.6348V27.0049C98.7668 26.8363 99.0258 26.6993 99.3447 26.6992ZM202.65 26.6992C202.969 26.6994 203.227 26.8363 203.228 27.0049V30.6348C203.227 30.8033 202.969 30.9403 202.65 30.9404C202.332 30.9403 202.073 30.8032 202.072 30.6348V27.0049C202.072 26.8363 202.332 26.6993 202.65 26.6992ZM205.239 26.6992C205.558 26.6992 205.817 26.8362 205.817 27.0049V30.6348C205.817 30.8033 205.558 30.9404 205.239 30.9404C204.921 30.9402 204.663 30.8032 204.662 30.6348V27.0049C204.662 26.8364 204.921 26.6994 205.239 26.6992ZM207.546 26.6992C207.865 26.6993 208.123 26.8363 208.123 27.0049V30.6348C208.123 30.8033 207.865 30.9403 207.546 30.9404C207.227 30.9403 206.968 30.8032 206.968 30.6348V27.0049C206.968 26.8363 207.227 26.6993 207.546 26.6992ZM209.417 26.6992C209.736 26.6993 209.994 26.8363 209.994 27.0049V30.6348C209.994 30.8033 209.736 30.9404 209.417 30.9404C209.098 30.9403 208.839 30.8032 208.839 30.6348V27.0049C208.839 26.8363 209.098 26.6993 209.417 26.6992ZM215.519 26.6992C215.838 26.6992 216.096 26.8362 216.097 27.0049V30.6348C216.096 30.8033 215.837 30.9404 215.519 30.9404C215.2 30.9403 214.941 30.8032 214.94 30.6348V27.0049C214.941 26.8363 215.2 26.6993 215.519 26.6992ZM217.807 26.6992C218.126 26.6992 218.385 26.8362 218.385 27.0049V30.6348C218.384 30.8033 218.126 30.9404 217.807 30.9404C217.488 30.9403 217.229 30.8032 217.229 30.6348V27.0049C217.229 26.8363 217.488 26.6993 217.807 26.6992ZM300.99 26.6992C301.309 26.6993 301.567 26.8363 301.567 27.0049V30.6348C301.567 30.8033 301.309 30.9403 300.99 30.9404C300.671 30.9404 300.413 30.8033 300.412 30.6348V27.0049C300.412 26.8363 300.671 26.6993 300.99 26.6992ZM106.642 26.6953C106.961 26.6953 107.22 26.8323 107.22 27.001V30.6299C107.22 30.7987 106.961 30.9355 106.642 30.9355C106.323 30.9355 106.064 30.7986 106.064 30.6299V27.001C106.064 26.8323 106.323 26.6954 106.642 26.6953ZM108.938 26.6953C109.258 26.6953 109.517 26.8323 109.517 27.001V30.6299C109.517 30.7987 109.258 30.9355 108.938 30.9355C108.62 30.9354 108.361 30.7985 108.361 30.6299V27.001C108.361 26.8323 108.62 26.6954 108.938 26.6953ZM110.811 26.6953C111.129 26.6954 111.388 26.8323 111.388 27.001V30.6299C111.388 30.7986 111.13 30.9355 110.811 30.9355C110.491 30.9355 110.232 30.7986 110.232 30.6299V27.001C110.232 26.8323 110.491 26.6953 110.811 26.6953ZM116.912 26.6953C117.231 26.6953 117.49 26.8323 117.49 27.001V30.6299C117.49 30.7986 117.231 30.9355 116.912 30.9355C116.593 30.9355 116.334 30.7986 116.334 30.6299V27.001C116.334 26.8323 116.593 26.6953 116.912 26.6953ZM119.2 26.6953C119.519 26.6953 119.778 26.8323 119.778 27.001V30.6299C119.778 30.7986 119.519 30.9355 119.2 30.9355C118.881 30.9355 118.622 30.7986 118.622 30.6299V27.001C118.622 26.8323 118.881 26.6953 119.2 26.6953Z" fill="black"/>
<defs>
<linearGradient id="paint0_linear_615_2342" x1="0" y1="27.2588" x2="319.823" y2="27.2588" gradientUnits="userSpaceOnUse">
<stop stop-color="#F0DAFF"/>
<stop offset="1" stop-color="#E2E4FF"/>
</linearGradient>
<linearGradient id="paint1_linear_615_2342" x1="0" y1="27.2588" x2="319.823" y2="27.2588" gradientUnits="userSpaceOnUse">
<stop stop-color="#4A68E0"/>
<stop offset="1" stop-color="#9F4CD7"/>
</linearGradient>
</defs>
</svg>
