<svg width="323" height="61" viewBox="0 0 323 61" fill="none" xmlns="http://www.w3.org/2000/svg">
<rect width="323" height="61" rx="15" fill="#F9F9F9"/>
<rect x="118" y="26.0361" width="4.57895" height="17.1687" rx="2.28947" fill="#D4D4FE"/>
<rect width="4.57895" height="39.1446" rx="2.28947" transform="matrix(-1 0 0 1 131.736 14.3613)" fill="#D4D4FE"/>
<rect width="4.57895" height="57" rx="2.28947" transform="matrix(-1 0 0 1 140.895 2)" fill="#D4D4FE"/>
<rect width="4.57895" height="39.1446" rx="2.28947" transform="matrix(-1 0 0 1 150.053 14.3613)" fill="#D4D4FE"/>
<rect width="4.57895" height="17.1687" rx="2.28947" transform="matrix(-1 0 0 1 159.211 26.0361)" fill="#D4D4FE"/>
<rect width="4.57895" height="39.1446" rx="2.28947" transform="matrix(-1 0 0 1 168.369 14.3613)" fill="#D4D4FE"/>
<rect width="4.57895" height="57" rx="2.28947" transform="matrix(-1 0 0 1 177.525 2)" fill="#D4D4FE"/>
<rect width="4.57895" height="39.1446" rx="2.28947" transform="matrix(-1 0 0 1 186.684 14.3613)" fill="#D4D4FE"/>
<rect width="4.57895" height="17.1687" rx="2.28947" transform="matrix(-1 0 0 1 195.842 26.0361)" fill="#D4D4FE"/>
<rect width="4.57895" height="8.24096" rx="2.28947" transform="matrix(-1 0 0 1 205 30.8433)" fill="#D4D4FE"/>
<rect x="209" y="26.0361" width="4.57895" height="17.1687" rx="2.28947" fill="#D4D4FE"/>
<rect width="4.57895" height="39.1446" rx="2.28947" transform="matrix(-1 0 0 1 222.736 14.3613)" fill="#D4D4FE"/>
<rect width="4.57895" height="57" rx="2.28947" transform="matrix(-1 0 0 1 231.895 2)" fill="#D4D4FE"/>
<rect width="4.57895" height="39.1446" rx="2.28947" transform="matrix(-1 0 0 1 241.053 14.3613)" fill="#D4D4FE"/>
<rect width="4.57895" height="17.1687" rx="2.28947" transform="matrix(-1 0 0 1 250.211 26.0361)" fill="#D4D4FE"/>
<rect width="4.57895" height="39.1446" rx="2.28947" transform="matrix(-1 0 0 1 259.369 14.3613)" fill="#D4D4FE"/>
<rect width="4.57895" height="57" rx="2.28947" transform="matrix(-1 0 0 1 268.525 2)" fill="#D4D4FE"/>
<rect width="4.57895" height="39.1446" rx="2.28947" transform="matrix(-1 0 0 1 277.684 14.3613)" fill="#D4D4FE"/>
<rect width="4.57895" height="17.1687" rx="2.28947" transform="matrix(-1 0 0 1 286.842 26.0361)" fill="#D4D4FE"/>
<rect width="4.57895" height="8.24096" rx="2.28947" transform="matrix(-1 0 0 1 296 30.8433)" fill="#D4D4FE"/>
<rect x="27" y="26.0361" width="4.57895" height="17.1687" rx="2.28947" fill="#D4D4FE"/>
<rect width="4.57895" height="39.1446" rx="2.28947" transform="matrix(-1 0 0 1 40.7363 14.3613)" fill="#D4D4FE"/>
<rect width="4.57895" height="57" rx="2.28947" transform="matrix(-1 0 0 1 49.8945 2)" fill="#D4D4FE"/>
<rect width="4.57895" height="39.1446" rx="2.28947" transform="matrix(-1 0 0 1 59.0527 14.3613)" fill="#D4D4FE"/>
<rect width="4.57895" height="17.1687" rx="2.28947" transform="matrix(-1 0 0 1 68.2109 26.0361)" fill="#D4D4FE"/>
<rect width="4.57895" height="39.1446" rx="2.28947" transform="matrix(-1 0 0 1 77.3691 14.3613)" fill="#D4D4FE"/>
<rect width="4.57895" height="57" rx="2.28947" transform="matrix(-1 0 0 1 86.5254 2)" fill="#D4D4FE"/>
<rect width="4.57895" height="39.1446" rx="2.28947" transform="matrix(-1 0 0 1 95.6836 14.3613)" fill="#D4D4FE"/>
<rect width="4.57895" height="17.1687" rx="2.28947" transform="matrix(-1 0 0 1 104.842 26.0361)" fill="#D4D4FE"/>
<rect width="4.57895" height="8.24096" rx="2.28947" transform="matrix(-1 0 0 1 114 30.8433)" fill="#D4D4FE"/>
</svg>
